<?xml version="1.0" encoding="utf-8"?>
<!-- Generator: Adobe Illustrator 16.0.0, SVG Export Plug-In . SVG Version: 6.00 Build 0)  -->
<!DOCTYPE svg PUBLIC "-//W3C//DTD SVG 1.1//EN" "http://www.w3.org/Graphics/SVG/1.1/DTD/svg11.dtd">
<svg version="1.1" id="Layer_2" xmlns="http://www.w3.org/2000/svg" xmlns:xlink="http://www.w3.org/1999/xlink" x="0px" y="0px"
	 width="1400px" height="980px" viewBox="0 0 1400 980" enable-background="new 0 0 1400 980" xml:space="preserve">
<rect fill="#1B1464" width="1400" height="980"/>
<g>
</g>
<g>
</g>
<g id="Airport">
</g>
<g>
	<g>
		<polygon fill-rule="evenodd" clip-rule="evenodd" fill="#FFFFFF" points="1267.5,650.5 1267.5,683.3 1245.2,683.3 1245.2,625.9 
			1213,625.9 1213,597.1 1170.9,597.1 1170.9,604.2 1148.5,604.2 1148.5,565.3 1106.4,565.3 1106.4,584.8 1074.2,584.8 
			1074.2,804.3 1106.4,804.3 1116.3,804.3 1138.6,804.3 1148.5,804.3 1170.9,804.3 1180.8,804.3 1203.1,804.3 1213,804.3 
			1235.3,804.3 1245.2,804.3 1267.5,804.3 1277.4,804.3 1309.7,804.3 1309.7,650.5 		"/>
		<g>
			<rect x="1084.2" y="594.8" fill-rule="evenodd" clip-rule="evenodd" fill="#29ABE2" width="22.2" height="199.4"/>
			<rect x="1116.4" y="575.3" fill-rule="evenodd" clip-rule="evenodd" fill="#29ABE2" width="22.2" height="219"/>
			<rect x="1148.6" y="614.2" fill-rule="evenodd" clip-rule="evenodd" fill="#1B1464" width="22.1" height="180.1"/>
			<rect x="1180.9" y="607.1" fill-rule="evenodd" clip-rule="evenodd" fill="#1B1464" width="22.1" height="187.1"/>
			<rect x="1213.1" y="635.9" fill-rule="evenodd" clip-rule="evenodd" fill="#2E3192" width="22.2" height="158.4"/>
			<rect x="1245.3" y="693.3" fill-rule="evenodd" clip-rule="evenodd" fill="#2E3192" width="22.1" height="101"/>
			<rect x="1277.5" y="660.5" fill-rule="evenodd" clip-rule="evenodd" fill="#2E3192" width="22.1" height="133.8"/>
		</g>
	</g>
	<g>
		<path fill-rule="evenodd" clip-rule="evenodd" fill="#FFFFFF" d="M432.2,639.6l-9.6-2.8l-2.8,9.6c-0.2,0.5-1.8,2.5-6.4,3.7
			c-1.4,0.4-3,0.7-4.7,0.8c-3.4-6.2-10-10.5-17.5-10.5c-8.5,0-15.7,5.4-18.6,12.9c-10.6,7.4-16.4,22.4-21.3,35.1
			c-1.4,3.7-3.5,9-5.6,13.5c-1.9-0.6-4-1-6.2-1c-0.3,0-0.6,0-0.8,0c-0.7-2.5-1.3-5.7-2.1-9.7c-2-11.4-3.6-25.5-5.2-40.5
			c-2.5-22.6-5-46-9.9-64.4c-2.4-9.2-9.9-37.3-32.1-37.3c-0.3,0-0.7,0-1.1,0c-1.4-0.2-2.8-0.3-4.1-0.3c-12.6,0-22.9,8.1-30.7,24.1
			c-5.8,11.9-10,27.5-14.1,42.5c-2.4,8.8-4.8,17.7-7.5,25.6c-8.9,1.9-15.7,9.9-15.7,19.4c0,1.9,0.3,3.8,0.8,5.6
			c-2.4,2-5.1,3.8-8.1,5.5c-3.1,1.7-6.3,3-9.5,4.1c-3.6-4.2-9-6.9-15-6.9c-5,0-9.5,1.8-13,4.8c-1.8-0.8-3.7-1.7-5.6-2.7
			c-8-4.3-14.3-9.4-16.2-12.1l-5.7-8.2l-18.6,12.8l5.7,8.2c4.3,6.2,13.5,13.5,24.2,19.2c2.1,1.1,4.5,2.3,7.1,3.4h-5.1v126.7H209h2.8
			h48.9h2.8h48.9h2.8H364h2.8h51.7V672.1c0.3-0.1,0.6-0.1,0.9-0.2c11.2-3.1,19.5-10.2,22.1-19.2l2.8-9.6L432.2,639.6z M284.4,571.4
			c0.4,0,0.9,0,1.3,0.1l0.8,0.1l1.9,0.1l0.7-0.1c0.1,0,0.2,0,0.3,0c0.8,0,2.8,1.3,5.1,5.9h-17.8
			C279.2,573.7,281.8,571.4,284.4,571.4z M247.4,676.8c5.3-3.6,8.7-9.6,8.7-16.4c0-4-1.2-7.7-3.2-10.8c2.9-8.3,5.3-17.2,7.8-26.1
			v53.3H247.4z M315.1,698.5c0.3,1.6,0.7,3.2,1,4.7c0.7,3.1,1.9,8.2,4.1,13.2c-0.3,1.4-0.5,2.9-0.5,4.5c0,1.9,0.3,3.8,0.8,5.6h-5.4
			V698.5z M358.6,726.5c0.4-1.2,0.6-2.5,0.7-3.8c1.7-2.1,3.2-4.5,4.6-7v10.8H358.6z"/>
		<g>
			<rect x="167.3" y="704.1" fill-rule="evenodd" clip-rule="evenodd" fill="#29ABE2" width="34.5" height="106.7"/>
			<rect x="219" y="686.8" fill-rule="evenodd" clip-rule="evenodd" fill="#1B1464" width="34.4" height="124"/>
			<rect x="270.7" y="587.5" fill-rule="evenodd" clip-rule="evenodd" fill="#FFAE00" width="34.5" height="223.3"/>
			<rect x="322.3" y="736.5" fill-rule="evenodd" clip-rule="evenodd" fill="#FF0000" width="34.4" height="74.4"/>
			<rect x="374" y="676" fill-rule="evenodd" clip-rule="evenodd" fill="#29ABE2" width="34.5" height="134.9"/>
			<path fill-rule="evenodd" clip-rule="evenodd" fill="#384146" d="M141.5,664.4c3.1,4.4,10.7,10.4,19.7,15.2
				c7.5,4,16,7.1,23.4,7.6l0.1,0c7.8,1,18.9-1.5,29.1-7c8.7-4.7,16.6-11.6,21.2-20.4c5.7-11,9.9-26.4,14.1-41.8
				c8.5-31.4,17.1-62.9,38.8-58.9c23.1-2.3,28.6,47.7,33.6,92.8c3.9,35.5,7.4,67.9,18,67.7l0.2,0c9.9,1.1,15.3-12.9,21-27.5
				c6.9-17.8,14.1-36.5,30.8-33l0.1,0c9.9,2.5,18.2,2.4,24.5,0.7c7.4-2,12-6.2,13.3-10.6l2.5,0.7c-1.5,5.2-6.8,10.1-15.1,12.3
				c-6.7,1.8-15.4,2-25.8-0.6l0,0c-14.6-3.1-21.4,14.6-27.9,31.4c-6,15.6-11.8,30.5-23.6,29.1c-12.8,0-16.5-33.4-20.5-70
				c-4.8-44-10.2-92.8-30.9-90.5l-0.4,0c-19.5-3.8-27.8,26.6-36,57c-4.2,15.5-8.4,31.1-14.3,42.3l0,0c-4.9,9.3-13.2,16.5-22.3,21.5
				c-10.6,5.8-22.3,8.4-30.6,7.3l0,0c-7.8-0.6-16.6-3.8-24.4-7.9c-9.3-5-17.4-11.3-20.6-16L141.5,664.4z"/>
			<path fill-rule="evenodd" clip-rule="evenodd" fill="#384146" d="M339.6,711c5.5,0,9.9,4.4,9.9,9.9c0,5.5-4.4,9.9-9.9,9.9
				c-5.5,0-9.9-4.4-9.9-9.9C329.7,715.4,334.1,711,339.6,711z"/>
			<circle fill-rule="evenodd" clip-rule="evenodd" fill="#FFFFFF" cx="339.6" cy="720.9" r="4.2"/>
			<path fill-rule="evenodd" clip-rule="evenodd" fill="#384146" d="M391.2,650.5c5.5,0,9.9,4.4,9.9,9.9c0,5.5-4.4,9.9-9.9,9.9
				c-5.5,0-9.9-4.4-9.9-9.9C381.3,654.9,385.8,650.5,391.2,650.5z"/>
			<path fill-rule="evenodd" clip-rule="evenodd" fill="#FFFFFF" d="M391.2,656.2c2.3,0,4.2,1.9,4.2,4.2s-1.9,4.2-4.2,4.2
				c-2.3,0-4.2-1.9-4.2-4.2S388.9,656.2,391.2,656.2z"/>
			<path fill-rule="evenodd" clip-rule="evenodd" fill="#384146" d="M236.2,650.5c5.5,0,9.9,4.4,9.9,9.9c0,5.5-4.4,9.9-9.9,9.9
				c-5.5,0-9.9-4.4-9.9-9.9C226.3,654.9,230.8,650.5,236.2,650.5z"/>
			<circle fill-rule="evenodd" clip-rule="evenodd" fill="#FFFFFF" cx="236.2" cy="660.4" r="4.2"/>
			<path fill-rule="evenodd" clip-rule="evenodd" fill="#384146" d="M184.5,678.6c5.5,0,9.9,4.4,9.9,9.9c0,5.5-4.4,9.9-9.9,9.9
				s-9.9-4.4-9.9-9.9C174.7,683.1,179.1,678.6,184.5,678.6z"/>
			<path fill-rule="evenodd" clip-rule="evenodd" fill="#FFFFFF" d="M184.5,684.4c2.3,0,4.2,1.9,4.2,4.2c0,2.3-1.9,4.2-4.2,4.2
				c-2.3,0-4.2-1.9-4.2-4.2C180.4,686.2,182.2,684.4,184.5,684.4z"/>
		</g>
	</g>
	<g>
		<path fill-rule="evenodd" clip-rule="evenodd" fill="#FFFFFF" d="M938.8,148.7l9.9-20.6h-25.2l-1,2.1c-2.3-1.5-4.9-2.2-7.7-2.2
			c-3.7,0-7.2,1.4-9.8,3.9c-2.9-1.9-6.2-2.9-9.9-2.9c-4,0-7.6,1.2-10.7,3.5c-2.9-2-6.3-3.1-10-3.1c-5.1,0-9.6,1.8-13,5.2
			c-2.6,2.5-5.6,7.1-5.6,14.6v10.9h3.8c-0.4,0.6-0.8,1.2-1.1,1.7c-0.4,0.6-0.8,1.3-1.2,2c-6.9-7.2-14.7-13.5-23.2-18.9l-8.4-5.4
			l-15.2,23.9l-1.1-0.7c-20.1-12.8-43.3-19.5-67-19.5c-31.3,0-60.6,11.4-83.2,31.4l-0.3-0.3l-6.7,7c-0.8,0.8-1.5,1.6-2.2,2.4
			c-0.1,0.1-0.2,0.3-0.4,0.4c-0.6,0.7-1.2,1.4-1.8,2c-0.1,0.2-0.3,0.3-0.4,0.5c-1,1.1-1.9,2.2-2.8,3.4c-0.3,0.4-0.7,0.8-1,1.2
			c-0.4,0.5-0.7,0.9-1,1.4c-0.4,0.5-0.8,1.1-1.2,1.6c-0.3,0.4-0.6,0.8-0.9,1.2c-0.5,0.6-0.9,1.3-1.4,2c-0.2,0.3-0.5,0.7-0.7,1
			c-0.7,1-1.4,2-2,3.1c-0.6,1-1.3,2.1-1.9,3.1c-0.1,0.2-0.3,0.5-0.4,0.7c-0.5,0.9-1,1.8-1.5,2.6c-0.1,0.1-0.2,0.3-0.2,0.4
			c-14.1,25.7-18.8,55-13.2,83.9c0,0,0,0.1,0,0.1c0.2,1.2,0.5,2.5,0.8,3.7c0.3,1.2,0.5,2.3,0.8,3.5c0,0.2,0.1,0.3,0.1,0.5
			c0.3,1,0.5,2.1,0.8,3.1c0,0.2,0.1,0.3,0.1,0.5c7.2,24.8,21.6,46.4,41.5,62.5c0.1,0.1,0.3,0.2,0.4,0.3c1.2,0.9,2.3,1.8,3.5,2.7
			c0,0,0,0,0,0c1.1,0.9,2.3,1.7,3.5,2.5c0.3,0.2,0.5,0.4,0.8,0.6c1.2,0.8,2.4,1.6,3.6,2.4c18.7,11.8,40,18.5,61.9,19.4l0,0.4l10-0.4
			c0,0,0,0,0,0l10-0.4l0-0.4c37.4-4.4,71-25.4,91.3-57.5c4.5-7.2,8.4-14.8,11.4-22.7c6.1-16.1,8.8-33.1,8-50.4
			c-0.5-10.7-2.4-21.3-5.6-31.5l27.6-8.7l-3-9.5c-3.3-10.3-7.8-20.1-13.5-29.1h18.4c1.2,0.3,2.5,0.4,3.8,0.4c0.4,0,0.8,0,1.2,0
			l-0.1,0.3h25.3l1.2-2.5c2.2,1.4,4.8,2.1,7.5,2.1c3.8,0,7.3-1.4,10.1-4.1c2.7-2.7,4.2-6.3,4.2-10.1v-9.9c0-3.7-1.4-7.3-4.1-10.1
			C939.9,149.5,939.3,149.1,938.8,148.7z M776.4,290.6c-7.2,11.3-19.4,18.4-32.8,18.9l0,0c-0.5,0-1.1,0-1.6,0c-1,0-1.9,0-2.9-0.1
			c-6.7-0.5-13.1-2.6-18.8-6.2c-0.8-0.5-1.5-1-2.3-1.6c-0.2-0.1-0.4-0.3-0.5-0.4c-0.7-0.5-1.4-1.1-2.1-1.7c0,0,0,0-0.1-0.1
			c-0.7-0.6-1.3-1.2-2-1.9c-0.1-0.1-0.2-0.2-0.3-0.3c-1.4-1.4-2.6-2.9-3.8-4.4c0,0-0.1-0.1-0.1-0.1c-1.8-2.4-3.3-5.1-4.5-7.9
			c0-0.1,0-0.1-0.1-0.2c-0.3-0.7-0.5-1.3-0.8-2c0-0.1-0.1-0.3-0.1-0.4c-0.2-0.6-0.4-1.3-0.6-1.9c0-0.1-0.1-0.2-0.1-0.3
			c-0.4-1.6-0.8-3.1-1-4.7c0,0,0,0,0-0.1c-1.3-8-0.1-16.3,3.4-23.7c0-0.1,0.1-0.2,0.1-0.2c0.3-0.6,0.6-1.2,0.9-1.8
			c0.1-0.1,0.1-0.2,0.2-0.4c0.4-0.7,0.8-1.4,1.2-2c0.4-0.7,0.9-1.4,1.4-2c0.1-0.1,0.2-0.3,0.3-0.4c0.4-0.5,0.8-1,1.2-1.5
			c0.1-0.2,0.3-0.3,0.4-0.5c0.4-0.5,0.8-0.9,1.2-1.4c0.1-0.1,0.3-0.3,0.4-0.4c7.6-8,18.2-12.6,29.5-12.6c7.7,0,15.2,2.2,21.7,6.3
			l8.4,5.4l15.2-23.9l1.1,0.7c8,5.1,13.9,12.7,16.9,21.7l-27.6,8.7l3,9.5C784.5,268,782.8,280.4,776.4,290.6z M913.3,149.2v-1.9
			c0-1.1-0.1-2.2-0.3-3.3l0.2-0.2c0.5-0.1,1-0.1,1.5-0.1c0.4,0,0.8,0,1.2,0.1L913.3,149.2z"/>
		<g>
			<path fill-rule="evenodd" clip-rule="evenodd" fill="#1B1464" d="M803.9,171.2L769.2,226c-23.6-15-54.9-8-69.9,15.7
				c-15,23.6-8,55,15.7,69.9c9,5.7,19.1,8.2,29,7.8l2.4,64.8c-22.6,0.9-45.6-4.9-66.2-17.9c-53.9-34.1-69.9-105.5-35.8-159.4
				C678.6,153.1,750,137.1,803.9,171.2z"/>
			<path fill-rule="evenodd" clip-rule="evenodd" fill="#FF0000" d="M793.9,208.1l34.7-54.8c23.9,15.2,40.4,37.7,48.3,62.7
				l-61.8,19.5C811.6,224.7,804.4,214.8,793.9,208.1z"/>
			<path fill-rule="evenodd" clip-rule="evenodd" fill="#FFAE00" d="M790.4,253.5l61.8-19.5c3,9.5,4.8,19.4,5.3,29.4
				c0.7,15.5-1.6,31.3-7.3,46.3c-2.7,7.2-6.2,14.2-10.5,20.9c-21.1,33.4-56.5,52.2-93.2,53.6l-2.4-64.8c16.1-0.6,31.6-8.9,40.9-23.5
				C793.2,282.8,794.7,267.3,790.4,253.5z"/>
			<path fill-rule="evenodd" clip-rule="evenodd" fill="#29ABE2" d="M705.6,233.6l-46.7-45c-5.3,5.5-10.2,11.7-14.4,18.4
				c-21.1,33.4-23,73.4-8.7,107.2c8.9,20.8,23.9,39.2,44.4,52.2c20.5,13,43.6,18.7,66.2,17.9l-2.4-64.8c-9.9,0.4-20-2.1-29-7.8
				s-15.6-13.8-19.5-22.9c-6.3-14.8-5.5-32.4,3.8-47C701.1,238.7,703.2,236,705.6,233.6z"/>
			<path fill-rule="evenodd" clip-rule="evenodd" fill="#FF0000" d="M865.7,149.3c0-3.3,0.9-5.8,2.6-7.5c1.5-1.5,3.5-2.3,6-2.3
				c2.3,0,4.2,0.9,5.8,2.6c1.6,1.7,2.4,3.7,2.4,6c0,2.4-0.5,4.6-1.6,6.8c-0.6,1.2-1.9,3.3-4,6.2c-0.6,0.8-1.4,2.1-2.5,3.8l-0.9,1.4
				c-0.6,0.9-1.1,1.6-1.4,2.2c-0.1,0.3-0.2,0.4-0.2,0.5h10.2v5.1h-16.5v-4.8c0-0.1,0.4-0.7,1.1-1.9c0.3-0.5,0.7-1.1,1.2-1.8l1.4-1.9
				c0.8-1.1,2-2.8,3.7-5.2c1.6-2.2,2.8-4.3,3.6-6.1c0.6-1.5,1-2.9,1-4.1c0-1-0.3-1.9-0.9-2.7c-0.6-0.8-1.5-1.1-2.5-1.1
				c-1.5,0-2.5,0.8-3.1,2.5c-0.2,0.6-0.3,1.2-0.3,2v1.3h-5.1V149.3L865.7,149.3z M903.3,166.2c0,2.3-0.8,4.2-2.4,5.8
				c-1.6,1.6-3.5,2.4-5.8,2.4c-2.3,0-4.2-0.8-5.8-2.4c-1.6-1.6-2.4-3.5-2.4-5.8v-18.8c0-2.3,0.8-4.2,2.4-5.8
				c1.6-1.6,3.5-2.4,5.8-2.4c2.3,0,4.2,0.8,5.8,2.4c1.6,1.6,2.4,3.5,2.4,5.8V166.2L903.3,166.2z M897.9,147.2c0-0.8-0.3-1.5-0.9-2.1
				c-0.6-0.6-1.3-0.9-2.1-0.9c-0.8,0-1.5,0.3-2.1,0.9c-0.6,0.6-0.9,1.3-0.9,2.1v18.8c0,0.8,0.3,1.5,0.9,2.1c0.6,0.6,1.3,0.9,2.1,0.9
				c0.8,0,1.5-0.3,2.1-0.9c0.6-0.6,0.9-1.3,0.9-2.1V147.2L897.9,147.2z M919.2,152.2c0,1.2-0.4,2.2-1.3,3c-0.9,0.8-1.9,1.3-3,1.3
				c-1.2,0-2.2-0.4-3.1-1.3c-0.8-0.8-1.3-1.8-1.3-3v-9.9c0-1.2,0.4-2.2,1.3-3.1c0.8-0.8,1.9-1.3,3.1-1.3s2.2,0.4,3.1,1.3
				c0.8,0.9,1.3,1.9,1.3,3.1V152.2L919.2,152.2z M913.2,152.2c0,0.4,0.1,0.8,0.4,1.1c0.3,0.3,0.7,0.5,1.1,0.5c0.4,0,0.8-0.2,1.1-0.5
				c0.3-0.3,0.5-0.7,0.5-1.1v-9.8c0-0.4-0.2-0.8-0.5-1.1c-0.3-0.3-0.7-0.5-1.1-0.5c-0.4,0-0.8,0.2-1.1,0.5c-0.3,0.3-0.4,0.7-0.4,1.1
				V152.2L913.2,152.2z M930.2,155.8c1.2,0,2.2,0.4,3.1,1.3c0.8,0.9,1.3,1.9,1.3,3v9.9c0,1.2-0.4,2.2-1.3,3c-0.8,0.8-1.8,1.2-3,1.2
				c-1.2,0-2.2-0.4-3.1-1.2c-0.8-0.8-1.3-1.8-1.3-3v-9.9c0-1.2,0.4-2.2,1.3-3.1C927.9,156.2,929,155.8,930.2,155.8L930.2,155.8z
				 M931.7,160c0-0.4-0.2-0.8-0.5-1.1c-0.3-0.3-0.7-0.5-1.1-0.5c-0.4,0-0.8,0.2-1.1,0.5c-0.3,0.3-0.5,0.7-0.5,1.1v9.8
				c0,0.4,0.2,0.8,0.5,1.1c0.3,0.3,0.7,0.5,1.1,0.5c0.4,0,0.8-0.2,1.1-0.5c0.3-0.3,0.5-0.7,0.5-1.1V160L931.7,160z M915.2,174.6
				l17.6-36.5h-3l-17.6,36.5H915.2z"/>
		</g>
	</g>
	<g>
		<path fill="#FFFFFF" d="M1092.5,133.8l0,83.2c0,0,0,0,0,0.1v188.3c0,13.9,11.3,25.3,25.3,25.3h148.3c13.9,0,25.3-11.3,25.3-25.3
			v-87.8V217.1v-83.3H1092.5z"/>
		<g>
			<g>
				<polygon fill-rule="evenodd" clip-rule="evenodd" fill="#FFAE00" points="1102.5,143.8 1255.7,143.8 1281.4,143.8 1281.4,307.6 
					1102.5,307.6 				"/>
				<g>
					<rect x="1148.5" y="161.4" fill-rule="evenodd" clip-rule="evenodd" fill="#FFFFFF" width="86.8" height="4"/>
					<rect x="1118.9" y="171.4" fill-rule="evenodd" clip-rule="evenodd" fill="#FFFFFF" width="146.1" height="4"/>
					<rect x="1118.9" y="178.4" fill-rule="evenodd" clip-rule="evenodd" fill="#FFFFFF" width="146.1" height="4"/>
					<rect x="1118.9" y="185.4" fill-rule="evenodd" clip-rule="evenodd" fill="#FFFFFF" width="146.1" height="4"/>
					<rect x="1118.9" y="192.4" fill-rule="evenodd" clip-rule="evenodd" fill="#FFFFFF" width="68.5" height="4"/>
				</g>
			</g>
			<g>
				<path fill-rule="evenodd" clip-rule="evenodd" fill="#1B1464" d="M1117.8,201.8h148.3c8.4,0,15.3,6.9,15.3,15.3v188.3
					c0,8.4-6.9,15.3-15.3,15.3h-148.3c-8.4,0-15.3-6.9-15.3-15.3V217.1C1102.5,208.7,1109.4,201.8,1117.8,201.8z"/>
				<path fill-rule="evenodd" clip-rule="evenodd" fill="#F2F2F2" d="M1120.9,213.9H1263c4.2,0,7.7,3.5,7.7,7.7v21.7
					c0,4.2-3.5,7.7-7.7,7.7h-142.1c-4.2,0-7.7-3.5-7.7-7.7v-21.7C1113.2,217.3,1116.6,213.9,1120.9,213.9z"/>
				<path fill-rule="evenodd" clip-rule="evenodd" fill="#29ABE2" d="M1120.3,256.7h20c3.9,0,7.1,3.2,7.1,7.1v20.7
					c0,3.9-3.2,7.1-7.1,7.1h-20c-3.9,0-7.1-3.2-7.1-7.1v-20.7C1113.2,259.9,1116.4,256.7,1120.3,256.7z"/>
				<path fill-rule="evenodd" clip-rule="evenodd" fill="#29ABE2" d="M1161.4,256.7h20c3.9,0,7.1,3.2,7.1,7.1v20.7
					c0,3.9-3.2,7.1-7.1,7.1h-20c-3.9,0-7.1-3.2-7.1-7.1v-20.7C1154.3,259.9,1157.5,256.7,1161.4,256.7z"/>
				<path fill-rule="evenodd" clip-rule="evenodd" fill="#29ABE2" d="M1202.5,256.7h20c3.9,0,7.1,3.2,7.1,7.1v20.7
					c0,3.9-3.2,7.1-7.1,7.1h-20c-3.9,0-7.1-3.2-7.1-7.1v-20.7C1195.4,259.9,1198.6,256.7,1202.5,256.7z"/>
				<path fill-rule="evenodd" clip-rule="evenodd" fill="#FFFFFF" d="M1243.6,256.7h20c3.9,0,7.1,3.2,7.1,7.1v20.7
					c0,3.9-3.2,7.1-7.1,7.1h-20c-3.9,0-7.1-3.2-7.1-7.1v-20.7C1236.5,259.9,1239.7,256.7,1243.6,256.7z"/>
				<path fill-rule="evenodd" clip-rule="evenodd" fill="#29ABE2" d="M1120.3,296.5h20c3.9,0,7.1,3.2,7.1,7.1v20.7
					c0,3.9-3.2,7.1-7.1,7.1h-20c-3.9,0-7.1-3.2-7.1-7.1v-20.7C1113.2,299.7,1116.4,296.5,1120.3,296.5z"/>
				<path fill-rule="evenodd" clip-rule="evenodd" fill="#29ABE2" d="M1161.4,296.5h20c3.9,0,7.1,3.2,7.1,7.1v20.7
					c0,3.9-3.2,7.1-7.1,7.1h-20c-3.9,0-7.1-3.2-7.1-7.1v-20.7C1154.3,299.7,1157.5,296.5,1161.4,296.5z"/>
				<path fill-rule="evenodd" clip-rule="evenodd" fill="#29ABE2" d="M1202.5,296.5h20c3.9,0,7.1,3.2,7.1,7.1v20.7
					c0,3.9-3.2,7.1-7.1,7.1h-20c-3.9,0-7.1-3.2-7.1-7.1v-20.7C1195.4,299.7,1198.6,296.5,1202.5,296.5z"/>
				<path fill-rule="evenodd" clip-rule="evenodd" fill="#FFFFFF" d="M1243.6,296.5h20c3.9,0,7.1,3.2,7.1,7.1v20.7
					c0,3.9-3.2,7.1-7.1,7.1h-20c-3.9,0-7.1-3.2-7.1-7.1v-20.7C1236.5,299.7,1239.7,296.5,1243.6,296.5z"/>
				<path fill-rule="evenodd" clip-rule="evenodd" fill="#29ABE2" d="M1120.3,336.4h20c3.9,0,7.1,3.2,7.1,7.1v20.7
					c0,3.9-3.2,7.1-7.1,7.1h-20c-3.9,0-7.1-3.2-7.1-7.1v-20.7C1113.2,339.6,1116.4,336.4,1120.3,336.4z"/>
				<path fill-rule="evenodd" clip-rule="evenodd" fill="#29ABE2" d="M1161.4,336.4h20c3.9,0,7.1,3.2,7.1,7.1v20.7
					c0,3.9-3.2,7.1-7.1,7.1h-20c-3.9,0-7.1-3.2-7.1-7.1v-20.7C1154.3,339.6,1157.5,336.4,1161.4,336.4z"/>
				<path fill-rule="evenodd" clip-rule="evenodd" fill="#29ABE2" d="M1202.5,336.4h20c3.9,0,7.1,3.2,7.1,7.1v20.7
					c0,3.9-3.2,7.1-7.1,7.1h-20c-3.9,0-7.1-3.2-7.1-7.1v-20.7C1195.4,339.6,1198.6,336.4,1202.5,336.4z"/>
				<path fill-rule="evenodd" clip-rule="evenodd" fill="#FFFFFF" d="M1243.6,336.4h20c3.9,0,7.1,3.2,7.1,7.1v20.7
					c0,3.9-3.2,7.1-7.1,7.1h-20c-3.9,0-7.1-3.2-7.1-7.1v-20.7C1236.5,339.6,1239.7,336.4,1243.6,336.4z"/>
				<path fill-rule="evenodd" clip-rule="evenodd" fill="#29ABE2" d="M1120.3,376.3h20c3.9,0,7.1,3.2,7.1,7.1v20.7
					c0,3.9-3.2,7.1-7.1,7.1h-20c-3.9,0-7.1-3.2-7.1-7.1v-20.7C1113.2,379.5,1116.4,376.3,1120.3,376.3z"/>
				<path fill-rule="evenodd" clip-rule="evenodd" fill="#29ABE2" d="M1161.4,376.3h20c3.9,0,7.1,3.2,7.1,7.1v20.7
					c0,3.9-3.2,7.1-7.1,7.1h-20c-3.9,0-7.1-3.2-7.1-7.1v-20.7C1154.3,379.5,1157.5,376.3,1161.4,376.3z"/>
				<path fill-rule="evenodd" clip-rule="evenodd" fill="#FFFFFF" d="M1202.5,376.3h20c3.9,0,7.1,3.2,7.1,7.1v20.7
					c0,3.9-3.2,7.1-7.1,7.1h-20c-3.9,0-7.1-3.2-7.1-7.1v-20.7C1195.4,379.5,1198.6,376.3,1202.5,376.3z"/>
				<path fill-rule="evenodd" clip-rule="evenodd" fill="#FFFFFF" d="M1243.6,376.3h20c3.9,0,7.1,3.2,7.1,7.1v20.7
					c0,3.9-3.2,7.1-7.1,7.1h-20c-3.9,0-7.1-3.2-7.1-7.1v-20.7C1236.5,379.5,1239.7,376.3,1243.6,376.3z"/>
				<path d="M1256,240.7L1256,240.7l1-0.9h3.7v-6.4l0.9-1l-0.9-1v-3.6l-2.7,3.9h-1.3v-2.2l3.1-4.5h-2.8l-1-0.9v-0.6l0,0l0.9-0.9h3.9
					l1.3,1.2l0,0l0.9,1v6.7l-0.9,1l0.9,1v6.6l-1.1,1.3l0,0l-1,0.9h-3.9l-1-0.9V240.7z M1252.2,239.8h2.8l1,0.9v0.6l0,0l-0.9,0.9
					h-3.9l-1.3-1.2l0,0l-0.9-1v-6.6l0.9-1l-0.9-1v-6.6l1.1-1.3l0,0l1-0.9h3.9l1,0.9v0.6l0,0l-0.9,0.9h-3.7v6.4l-0.9,1l0.9,1v3.6
					l2.7-3.9h1.3v2.2L1252.2,239.8z"/>
				<path fill="#FFEBBF" d="M1135.5,269.4c-1.6,1.9-2.7,3.6-3.2,5.2c-0.6,1.6-1,3.5-1.2,5.8l-0.1,1.5h-3l0.1-1.5
					c0.2-2.2,0.7-4.2,1.5-6c0.8-1.8,1.8-3.5,3.1-5h-7.6v-2.3h10.4V269.4z"/>
				<path fill="#FFEBBF" d="M1176.5,270.7c0,0.7-0.2,1.4-0.6,2c-0.4,0.6-0.9,1-1.6,1.3c0.8,0.3,1.4,0.8,1.9,1.4
					c0.5,0.6,0.7,1.3,0.7,2.1c0,1.4-0.5,2.4-1.4,3.2c-0.9,0.7-2.1,1.1-3.6,1.1h0v-2.3h0c0.6,0,1.1-0.2,1.5-0.6
					c0.4-0.4,0.6-0.9,0.6-1.6c0-0.7-0.2-1.2-0.6-1.6c-0.4-0.4-0.9-0.6-1.5-0.6v-2.3h0c0.5,0,1-0.2,1.3-0.5c0.3-0.4,0.5-0.8,0.5-1.5
					c0-0.6-0.2-1.1-0.5-1.4c-0.3-0.4-0.7-0.5-1.3-0.5v-2.3c1.4,0,2.5,0.4,3.4,1.1C1176,268.4,1176.5,269.4,1176.5,270.7z
					 M1171.8,281.8c-1.5,0-2.7-0.4-3.6-1.1c-0.9-0.7-1.4-1.8-1.4-3.2c0-0.8,0.2-1.5,0.7-2.1c0.4-0.6,1.1-1.1,1.9-1.4
					c-0.7-0.3-1.2-0.8-1.6-1.3c-0.4-0.6-0.6-1.2-0.6-2c0-1.3,0.4-2.3,1.3-3c0.9-0.7,2-1.1,3.4-1.1h0v2.3h0c-0.5,0-1,0.2-1.3,0.5
					c-0.3,0.4-0.5,0.8-0.5,1.4c0,0.6,0.2,1.1,0.5,1.5c0.3,0.4,0.7,0.5,1.3,0.5v2.3h0c-0.6,0-1.1,0.2-1.5,0.6
					c-0.4,0.4-0.6,0.9-0.6,1.6c0,0.7,0.2,1.2,0.6,1.6c0.4,0.4,0.9,0.6,1.5,0.6V281.8z"/>
				<path fill="#FFEBBF" d="M1212.8,279.4c0.5-0.1,1-0.4,1.3-0.8c0.5-0.6,0.7-1.4,0.7-2.5v-0.7c-0.3,0.4-0.7,0.7-1.2,0.9
					c-0.3,0.1-0.6,0.2-0.9,0.3v-2.1c0.4,0,0.8-0.1,1.2-0.3c0.4-0.2,0.7-0.4,0.9-0.7v-1.4c0-1.1-0.2-1.9-0.6-2.5
					c-0.4-0.6-0.9-0.8-1.5-0.8v-2.3c1.5,0,2.7,0.5,3.6,1.6c0.9,1,1.4,2.5,1.4,4.4v3.5c0,1.8-0.5,3.2-1.6,4.2
					c-0.9,0.9-2.1,1.4-3.5,1.5V279.4z M1212.2,279.5c0.2,0,0.4,0,0.6-0.1v2.3c-0.2,0-0.4,0-0.6,0c-0.5,0-1-0.1-1.6-0.2
					c-0.5-0.1-1-0.3-1.5-0.5l0.3-2.1c0.4,0.2,0.9,0.3,1.3,0.4C1211.2,279.5,1211.7,279.5,1212.2,279.5L1212.2,279.5z M1212.8,276.6
					c-0.2,0-0.4,0-0.6,0c-1.4,0-2.5-0.5-3.2-1.3c-0.8-0.9-1.2-2.1-1.2-3.6c0-1.5,0.5-2.7,1.4-3.7c0.9-1,2.1-1.5,3.6-1.5h0.1v2.3h0
					c-0.6,0-1.1,0.3-1.5,0.8c-0.4,0.6-0.6,1.2-0.6,2c0,0.8,0.2,1.5,0.5,2c0.3,0.5,0.8,0.8,1.5,0.8h0.1V276.6z"/>
				<path fill="#335E59" d="M1257.6,281.8v-1.6h0c0.4,0,0.8-0.1,0.9-0.4c0.2-0.3,0.3-0.6,0.3-1v-0.8c0-0.4-0.1-0.7-0.3-1
					c-0.2-0.3-0.5-0.4-0.9-0.4v-1.6c1,0,1.8,0.3,2.4,0.9c0.6,0.6,0.9,1.3,0.9,2.2v0.8c0,0.9-0.3,1.6-0.8,2.2
					C1259.5,281.5,1258.7,281.8,1257.6,281.8L1257.6,281.8L1257.6,281.8z M1257.6,269.9v-1.4l0.7,0.3L1257.6,269.9z M1250.6,266.6
					c1,0,1.8,0.3,2.4,0.9c0.6,0.6,0.8,1.3,0.8,2.2v0.8c0,0.9-0.3,1.6-0.8,2.2c-0.6,0.6-1.3,0.9-2.4,0.9h0v-1.6h0
					c0.4,0,0.7-0.1,0.9-0.4c0.2-0.3,0.3-0.6,0.3-1v-0.8c0-0.4-0.1-0.7-0.3-1c-0.2-0.3-0.5-0.4-0.9-0.4V266.6L1250.6,266.6z
					 M1257.6,268.6l-0.8-0.4l-6.3,10.1v2l0.5,0.3l6.6-10.5V268.6L1257.6,268.6z M1257.6,274.9v1.6c-0.4,0-0.7,0.1-0.9,0.4
					c-0.2,0.3-0.3,0.6-0.3,1v0.8c0,0.4,0.1,0.7,0.3,1c0.2,0.3,0.5,0.4,0.9,0.4v1.6c-1,0-1.8-0.3-2.4-0.9c-0.6-0.6-0.9-1.3-0.9-2.2
					v-0.8c0-0.9,0.3-1.6,0.9-2.2C1255.9,275.2,1256.6,274.9,1257.6,274.9z M1247.4,269.6c0-0.9,0.3-1.6,0.8-2.2
					c0.6-0.6,1.3-0.9,2.4-0.9h0v1.6h0c-0.4,0-0.7,0.1-0.9,0.4c-0.2,0.3-0.3,0.6-0.3,1v0.8c0,0.4,0.1,0.7,0.3,1s0.5,0.4,0.9,0.4v1.6
					c-1,0-1.8-0.3-2.4-0.9c-0.6-0.6-0.9-1.3-0.9-2.2V269.6L1247.4,269.6z M1250.6,278.2v2l-0.9-0.5L1250.6,278.2z"/>
				<path fill="#FFEBBF" d="M1134.1,315.9h1.7v2.3h-1.7v3.2h-3v-3.2h-1.7v-2.3h1.7v-5.3l-0.1,0l-0.2,0.4l-1.4,2.2v-3.9l1.7-2.7h3
					V315.9z M1129.5,318.2h-4.3l-0.1-1.8l4.5-7.1v3.9l-1.7,2.7h1.7V318.2z"/>
				<path fill="#FFEBBF" d="M1167.2,314.9l0.9-8.2h8.2v2.4h-5.8l-0.4,3.4c0.3-0.2,0.6-0.4,1-0.5c0.4-0.1,0.8-0.2,1.3-0.2
					c1.4,0,2.5,0.4,3.3,1.3c0.8,0.9,1.2,2.1,1.2,3.7c0,1.4-0.4,2.6-1.3,3.5c-0.9,0.9-2.1,1.4-3.7,1.4c-1.4,0-2.5-0.4-3.5-1.1
					c-1-0.7-1.4-1.8-1.4-3.1l0,0l2.9-0.1c0,0.7,0.2,1.2,0.6,1.5c0.4,0.4,0.9,0.6,1.5,0.6c0.7,0,1.2-0.2,1.5-0.7
					c0.3-0.5,0.5-1.1,0.5-1.9c0-0.9-0.2-1.5-0.5-2c-0.4-0.5-0.9-0.8-1.6-0.8c-0.6,0-1,0.1-1.3,0.3c-0.3,0.2-0.5,0.5-0.6,0.8
					L1167.2,314.9z"/>
				<path fill="#FFEBBF" d="M1213.9,306.4c0.6,0,1.1,0.1,1.5,0.2c0.5,0.1,0.9,0.3,1.4,0.5l-0.5,2.2c-0.4-0.2-0.8-0.3-1.2-0.3
					c-0.3-0.1-0.8-0.1-1.2-0.1c-0.3,0-0.6,0-0.8,0.1v-2.4C1213.3,306.4,1213.6,306.4,1213.9,306.4L1213.9,306.4z M1213.1,311.6
					c0.3,0,0.6-0.1,0.9-0.1c1.3,0,2.4,0.5,3.1,1.4c0.7,0.9,1.1,2.1,1.1,3.6c0,1.5-0.5,2.7-1.4,3.7c-0.9,1-2.1,1.4-3.6,1.4h-0.1v-2.3
					l0.1,0c0.6,0,1.1-0.3,1.5-0.8c0.4-0.6,0.6-1.2,0.6-2c0-0.8-0.2-1.5-0.6-2c-0.4-0.5-0.9-0.8-1.5-0.8h-0.1V311.6z M1213.1,308.8
					c-0.5,0.1-1,0.4-1.3,0.9c-0.5,0.7-0.8,1.6-0.8,2.8l0,0c0.3-0.3,0.8-0.6,1.3-0.8c0.3-0.1,0.5-0.2,0.8-0.2v2.2
					c-0.5,0-0.9,0.1-1.3,0.3c-0.4,0.2-0.7,0.4-0.9,0.7v1c0,1.2,0.2,2.1,0.6,2.7c0.4,0.6,0.9,0.9,1.5,0.9v2.3c-1.5,0-2.7-0.6-3.7-1.6
					c-1-1.1-1.5-2.5-1.5-4.4v-2.9c0-1.9,0.6-3.5,1.7-4.6c0.9-1,2.1-1.5,3.5-1.7V308.8z"/>
				<polygon fill="#335E59" points="1254,313.9 1254.1,313.9 1255.8,310.4 1259.1,310.4 1255.8,315.8 1259.2,321.4 1255.9,321.4 
					1254.1,317.8 1252.3,321.4 1249,321.4 1252.4,315.8 1249.1,310.4 1252.4,310.4 				"/>
				<polygon fill="#FFEBBF" points="1132.1,361.3 1129.2,361.3 1129.2,349.1 1126.2,349.1 1126.2,347 1132.1,346.5 				"/>
				<path fill="#FFEBBF" d="M1176.9,361.3h-10.1v-1.9l4.8-5.1c0.7-0.8,1.2-1.5,1.5-2c0.3-0.5,0.4-1.1,0.4-1.5c0-0.6-0.2-1.1-0.5-1.5
					c-0.3-0.4-0.8-0.6-1.4-0.6c-0.7,0-1.2,0.2-1.6,0.7c-0.4,0.5-0.5,1.1-0.5,1.9h-2.9l0-0.1c0-1.3,0.4-2.5,1.3-3.4
					c0.9-0.9,2.1-1.4,3.7-1.4c1.5,0,2.7,0.4,3.6,1.2c0.9,0.8,1.3,1.8,1.3,3.2c0,0.9-0.2,1.7-0.7,2.5c-0.5,0.8-1.3,1.7-2.4,3
					l-2.6,2.9l0,0.1h6.2V361.3z"/>
				<path fill="#FFEBBF" d="M1210.9,352.6h1.7c0.7,0,1.2-0.2,1.6-0.6c0.3-0.4,0.5-0.9,0.5-1.5c0-0.6-0.2-1.1-0.5-1.4
					c-0.3-0.4-0.8-0.5-1.5-0.5c-0.6,0-1,0.2-1.4,0.5c-0.4,0.3-0.6,0.8-0.6,1.3h-2.9l0-0.1c0-1.2,0.4-2.1,1.3-2.9
					c0.9-0.8,2.1-1.1,3.4-1.1c1.5,0,2.7,0.4,3.7,1.1c0.9,0.7,1.4,1.8,1.4,3.1c0,0.6-0.2,1.3-0.6,1.8c-0.4,0.6-1,1-1.7,1.4
					c0.8,0.3,1.4,0.7,1.9,1.3c0.4,0.6,0.6,1.3,0.6,2.1c0,1.4-0.5,2.4-1.5,3.2c-1,0.8-2.2,1.2-3.8,1.2c-1.4,0-2.6-0.4-3.5-1.1
					c-1-0.7-1.5-1.8-1.4-3.1l0-0.1h2.9c0,0.6,0.2,1,0.6,1.4c0.4,0.4,0.9,0.6,1.5,0.6c0.7,0,1.2-0.2,1.6-0.6c0.4-0.4,0.6-0.9,0.6-1.5
					c0-0.8-0.2-1.4-0.6-1.7c-0.4-0.4-1-0.5-1.7-0.5h-1.7V352.6z"/>
				<rect x="1251.3" y="353.9" fill="#335E59" width="5.7" height="2.3"/>
				<path fill="#FFEBBF" d="M1135.4,395.4c0,2-0.4,3.4-1.3,4.5c-0.9,1-2.1,1.5-3.6,1.5h0v-2.3h0c0.7,0,1.2-0.3,1.5-0.8
					c0.3-0.5,0.5-1.4,0.5-2.6v-3.8c0-1.2-0.2-2-0.5-2.6c-0.3-0.5-0.9-0.8-1.5-0.8v-2.3c1.5,0,2.7,0.5,3.6,1.5c0.9,1,1.4,2.5,1.4,4.5
					V395.4z M1130.4,401.3c-1.5,0-2.8-0.5-3.6-1.5c-0.9-1-1.4-2.5-1.4-4.5v-3.3c0-2,0.5-3.4,1.3-4.5c0.9-1,2.1-1.5,3.6-1.5h0v2.3h0
					c-0.7,0-1.2,0.3-1.5,0.8c-0.3,0.5-0.5,1.4-0.5,2.6v3.8c0,1.2,0.2,2.1,0.5,2.6c0.3,0.5,0.8,0.8,1.5,0.8V401.3z"/>
				<path fill="#FFEBBF" d="M1169.4,393c0-0.7,0.2-1.2,0.7-1.7c0.4-0.4,1-0.7,1.7-0.7c0.7,0,1.3,0.2,1.8,0.6c0.4,0.4,0.7,1,0.7,1.7
					v0.9c0,0.7-0.2,1.2-0.7,1.7s-1,0.6-1.8,0.6c-0.7,0-1.3-0.2-1.8-0.6c-0.4-0.4-0.7-1-0.7-1.7V393z"/>
				<polygon fill="#335E59" points="1214.3,392.9 1217.9,392.9 1217.9,395.4 1214.3,395.4 1214.3,399.7 1211.5,399.7 1211.5,395.4 
					1207.8,395.4 1207.8,392.9 1211.5,392.9 1211.5,388.9 1214.3,388.9 				"/>
				<path fill="#335E59" d="M1258.6,393.4h-9.1v-2.3h9.1V393.4L1258.6,393.4z M1258.6,397.8h-9.1v-2.3h9.1V397.8z"/>
			</g>
		</g>
	</g>
	<g>
		<path fill-rule="evenodd" clip-rule="evenodd" fill="#FFFFFF" d="M90.3,370.3V191.2h232c2-8.3,6.3-15.9,12.6-22
			c8.6-8.3,19.8-12.9,31.7-12.9c9.9,0,19.2,3.1,27,8.9c2.3-5.3,5.7-10.2,10.1-14.5c8.6-8.3,19.8-12.9,31.7-12.9
			c12.4,0,24.1,4.9,32.7,13.8c8.5,8.7,13,20.3,12.9,32.4c-0.2,12.2-5.1,23.5-13.8,32c-2.1,2-4.4,3.9-6.8,5.4v16.8
			c2.9,9,2.9,18.8,0,27.8v104.2H90.3z"/>
		<g>
			<g>
				<rect x="100.3" y="201.2" fill-rule="evenodd" clip-rule="evenodd" fill="#009245" width="350" height="159.1"/>
				<rect x="109.8" y="212" fill-rule="evenodd" clip-rule="evenodd" fill="#39B54A" width="331" height="137.4"/>
				<path fill-rule="evenodd" clip-rule="evenodd" fill="#009245" d="M401,201.2h49.3v49.3C423.1,250.5,401,228.4,401,201.2z"/>
				<path fill-rule="evenodd" clip-rule="evenodd" fill="#009245" d="M149.6,360.3h-49.3v-49.3C127.6,310.9,149.6,333,149.6,360.3z"
					/>
				<path fill-rule="evenodd" clip-rule="evenodd" fill="#009245" d="M275.3,332.4c28.5,0,51.7-23.2,51.7-51.7
					c0-28.5-23.2-51.7-51.7-51.7s-51.7,23.2-51.7,51.7C223.6,309.2,246.8,332.4,275.3,332.4z"/>
				<g>
					<path fill="#FFFFFF" d="M130.5,251.9h-5.3v-19.8c-1.9,1.8-4.2,3.1-6.8,4v-4.8c1.4-0.4,2.9-1.3,4.5-2.6c1.6-1.3,2.7-2.7,3.3-4.4
						h4.3V251.9z"/>
					<path fill="#FFFFFF" d="M147.2,224.4c2.7,0,4.7,0.9,6.2,2.8c1.8,2.2,2.7,6,2.7,11.2c0,5.2-0.9,8.9-2.7,11.2
						c-1.5,1.9-3.6,2.8-6.2,2.8c-2.7,0-4.8-1-6.5-3.1c-1.6-2.1-2.5-5.7-2.5-11c0-5.2,0.9-8.9,2.7-11.2
						C142.5,225.3,144.5,224.4,147.2,224.4z M147.2,228.7c-0.6,0-1.2,0.2-1.7,0.6c-0.5,0.4-0.9,1.1-1.2,2.2
						c-0.4,1.4-0.5,3.6-0.5,6.9c0,3.2,0.2,5.4,0.5,6.6c0.3,1.2,0.7,2,1.2,2.4c0.5,0.4,1.1,0.6,1.7,0.6c0.6,0,1.2-0.2,1.7-0.6
						c0.5-0.4,0.9-1.1,1.2-2.2c0.4-1.3,0.5-3.6,0.5-6.8c0-3.2-0.2-5.4-0.5-6.6c-0.3-1.2-0.7-2-1.2-2.4
						C148.4,228.9,147.8,228.7,147.2,228.7z"/>
					<path fill="#FFFFFF" d="M168.5,224.4c2.7,0,4.7,0.9,6.2,2.8c1.8,2.2,2.7,6,2.7,11.2c0,5.2-0.9,8.9-2.7,11.2
						c-1.5,1.9-3.6,2.8-6.2,2.8c-2.7,0-4.8-1-6.5-3.1c-1.6-2.1-2.5-5.7-2.5-11c0-5.2,0.9-8.9,2.7-11.2
						C163.8,225.3,165.9,224.4,168.5,224.4z M168.5,228.7c-0.6,0-1.2,0.2-1.7,0.6c-0.5,0.4-0.9,1.1-1.2,2.2
						c-0.4,1.4-0.5,3.6-0.5,6.9c0,3.2,0.2,5.4,0.5,6.6c0.3,1.2,0.7,2,1.2,2.4c0.5,0.4,1.1,0.6,1.7,0.6c0.6,0,1.2-0.2,1.7-0.6
						c0.5-0.4,0.9-1.1,1.2-2.2c0.4-1.3,0.5-3.6,0.5-6.8c0-3.2-0.2-5.4-0.5-6.6c-0.3-1.2-0.7-2-1.2-2.4
						C169.7,228.9,169.1,228.7,168.5,228.7z"/>
				</g>
				<g>
					<path fill="#FFFFFF" d="M386.5,344.4h-5.3v-19.8c-1.9,1.8-4.2,3.1-6.8,4v-4.8c1.4-0.4,2.9-1.3,4.5-2.6c1.6-1.3,2.7-2.7,3.3-4.4
						h4.3V344.4z"/>
					<path fill="#FFFFFF" d="M403.2,316.8c2.7,0,4.7,0.9,6.2,2.8c1.8,2.2,2.7,6,2.7,11.2c0,5.2-0.9,8.9-2.7,11.2
						c-1.5,1.9-3.6,2.8-6.2,2.8c-2.7,0-4.8-1-6.5-3.1c-1.6-2.1-2.5-5.7-2.5-11c0-5.2,0.9-8.9,2.7-11.2
						C398.5,317.8,400.6,316.8,403.2,316.8z M403.2,321.2c-0.6,0-1.2,0.2-1.7,0.6c-0.5,0.4-0.9,1.1-1.2,2.2
						c-0.4,1.4-0.5,3.6-0.5,6.9c0,3.2,0.2,5.4,0.5,6.6c0.3,1.2,0.7,2,1.2,2.4c0.5,0.4,1.1,0.6,1.7,0.6c0.6,0,1.2-0.2,1.7-0.6
						c0.5-0.4,0.9-1.1,1.2-2.2c0.4-1.3,0.5-3.6,0.5-6.8c0-3.2-0.2-5.4-0.5-6.6c-0.3-1.2-0.7-2-1.2-2.4
						C404.4,321.4,403.9,321.2,403.2,321.2z"/>
					<path fill="#FFFFFF" d="M424.5,316.8c2.7,0,4.7,0.9,6.2,2.8c1.8,2.2,2.7,6,2.7,11.2c0,5.2-0.9,8.9-2.7,11.2
						c-1.5,1.9-3.6,2.8-6.2,2.8c-2.7,0-4.8-1-6.5-3.1c-1.6-2.1-2.5-5.7-2.5-11c0-5.2,0.9-8.9,2.7-11.2
						C419.8,317.8,421.9,316.8,424.5,316.8z M424.5,321.2c-0.6,0-1.2,0.2-1.7,0.6c-0.5,0.4-0.9,1.1-1.2,2.2
						c-0.4,1.4-0.5,3.6-0.5,6.9c0,3.2,0.2,5.4,0.5,6.6c0.3,1.2,0.7,2,1.2,2.4c0.5,0.4,1.1,0.6,1.7,0.6s1.2-0.2,1.7-0.6
						c0.5-0.4,0.9-1.1,1.2-2.2c0.4-1.3,0.5-3.6,0.5-6.8c0-3.2-0.2-5.4-0.5-6.6c-0.3-1.2-0.7-2-1.2-2.4
						C425.8,321.4,425.2,321.2,424.5,321.2z"/>
				</g>
				<path fill="#FFFFFF" d="M293.2,280.1c-1.9-2.3-5.2-4.3-9.9-5.9c-1.1-0.4-2.2-0.7-3.5-1.1v-16c1.5,0.6,2.6,1.6,3.5,2.8
					c0.7,1,1.2,2.3,1.5,3.7l10.4-1.4c-0.7-4.1-2.3-7.4-4.9-9.8c-1.9-1.8-4.2-3-6.9-3.8c-1.1-0.3-2.2-0.5-3.5-0.7V244h-5.9v4.1
					c-0.9,0.1-1.8,0.2-2.6,0.4c-3.5,0.8-6.4,2.4-8.7,4.8c-2.8,3.1-4.2,6.8-4.2,11.3c0,4.4,1.3,8.2,3.8,11.3c2.1,2.6,5.1,4.6,9.1,6.1
					c0.8,0.3,1.7,0.6,2.6,0.9v17.2c-0.9-0.5-1.8-1.1-2.6-1.9c-0.5-0.5-0.9-1-1.4-1.6c-1.2-1.6-2-3.5-2.5-5.7l-10.7,1.1
					c0.8,5.4,2.7,9.6,5.7,12.5c2.4,2.4,5.3,4,8.9,4.8c0.8,0.2,1.7,0.4,2.6,0.5v7.5h5.9v-7.7c1.2-0.2,2.4-0.4,3.5-0.7
					c3.7-1.1,6.7-2.9,9-5.5c3-3.4,4.5-7.6,4.5-12.5C296.8,286.5,295.6,282.9,293.2,280.1z M273.9,271.2c-1-0.4-1.9-1-2.6-1.6
					c-0.5-0.4-1-0.9-1.3-1.4c-0.9-1.2-1.3-2.6-1.3-4c0-1.6,0.5-3,1.4-4.4c0.4-0.5,0.8-0.9,1.2-1.3c0.7-0.6,1.6-1.1,2.6-1.5V271.2z
					 M284.8,297.8c-0.5,0.5-1,1-1.5,1.4c-1,0.7-2.2,1.2-3.5,1.4v-16c1.4,0.4,2.5,0.9,3.5,1.5c0.8,0.5,1.4,1,1.8,1.6
					c1.1,1.3,1.6,2.9,1.6,4.7C286.8,294.5,286.1,296.3,284.8,297.8z"/>
			</g>
			<g>
				<g>
					<g>
						<path fill-rule="evenodd" clip-rule="evenodd" fill="#FFAE00" d="M341.1,226.6c-13.7-14.1-13.3-36.6,0.8-50.3
							c14.1-13.7,36.6-13.3,50.3,0.8c13.7,14.1,13.3,36.6-0.8,50.3C377.3,241,354.7,240.7,341.1,226.6z"/>
						<path fill-rule="evenodd" clip-rule="evenodd" fill="#FFEBBF" d="M344.6,223.2c-11.8-12.2-11.5-31.6,0.7-43.4
							c12.2-11.8,31.6-11.5,43.4,0.7c11.8,12.2,11.5,31.6-0.7,43.4C375.8,235.6,356.4,235.3,344.6,223.2z"/>
						<path fill-rule="evenodd" clip-rule="evenodd" fill="#FFAE00" d="M366.8,188.6c2.3-2.3,4.7-3.4,7.3-3.3c1.6,0.1,3,0.6,4.4,1.6
							l1.9-1.8l3.4,3.5l-2,1.9c1.1,2,1.4,4.2,0.7,6.5c-0.6,2-1.7,3.9-3.3,5.7l-4.1-3.6c1.4-1.7,2.2-3.2,2.2-4.5
							c0.1-1-0.2-1.8-0.9-2.4c-0.9-0.9-2-1.1-3.4-0.9c-0.7,0.1-1.4,0.6-2.2,1.3c-1.1,1.1-1.7,2.7-1.9,4.7c0,1.6,0.1,3.9,0.1,7
							c0,2.4-0.2,4.4-0.6,5.9c-0.6,1.9-1.6,3.6-3,5c-1.4,1.4-3,2.3-4.8,2.7c-2.2,0.6-4.3,0.3-6.2-1l-1.7,1.7l-3.4-3.5l1.7-1.7
							c-0.8-1.3-1.2-2.7-1.3-4.1c0-2.4,0.8-4.6,2.6-6.6l4.5,3.2c-1,1.2-1.5,2.3-1.7,3.5c-0.1,0.8,0.2,1.5,0.9,2.2
							c0.7,0.7,1.6,1,2.6,0.7c0.8-0.2,1.7-0.7,2.4-1.4c1.2-1.2,2-3,2.2-5.3c0.1-0.8,0.1-2,0-3.4c-0.1-1.7-0.2-2.9-0.2-3.5
							c0.1-2,0.3-3.7,0.7-5.2C364.8,191.4,365.7,189.8,366.8,188.6z"/>
					</g>
					<g>
						<path fill-rule="evenodd" clip-rule="evenodd" fill="#FFAE00" d="M391.4,276.9c-13.7-14.1-13.3-36.6,0.8-50.3
							c14.1-13.7,36.6-13.3,50.3,0.8c13.7,14.1,13.3,36.6-0.8,50.3C427.6,291.4,405.1,291,391.4,276.9z"/>
						<path fill-rule="evenodd" clip-rule="evenodd" fill="#FFEBBF" d="M394.9,273.5c-11.8-12.2-11.5-31.6,0.7-43.4
							c12.2-11.8,31.6-11.5,43.4,0.7c11.8,12.2,11.5,31.6-0.7,43.4C426.1,285.9,406.7,285.7,394.9,273.5z"/>
						<path fill-rule="evenodd" clip-rule="evenodd" fill="#FFAE00" d="M417.1,238.9c2.3-2.3,4.7-3.4,7.3-3.3c1.6,0.1,3,0.6,4.4,1.6
							l1.9-1.8l3.4,3.5l-2,1.9c1.1,2,1.4,4.2,0.7,6.5c-0.6,2-1.7,3.9-3.3,5.7l-4.1-3.6c1.4-1.7,2.2-3.2,2.2-4.5
							c0.1-1-0.2-1.8-0.9-2.4c-0.9-0.9-2-1.1-3.4-0.9c-0.7,0.1-1.4,0.6-2.2,1.3c-1.1,1.1-1.7,2.7-1.9,4.7c0,1.6,0.1,3.9,0.1,7
							c0,2.4-0.2,4.4-0.6,5.9c-0.6,1.9-1.6,3.6-3,5c-1.4,1.4-3,2.3-4.8,2.7c-2.2,0.6-4.3,0.3-6.2-1l-1.7,1.7l-3.4-3.5l1.7-1.7
							c-0.8-1.3-1.2-2.7-1.3-4.1c0-2.4,0.8-4.6,2.6-6.6l4.5,3.2c-1,1.2-1.5,2.3-1.7,3.5c-0.1,0.8,0.2,1.5,0.9,2.2
							c0.7,0.7,1.6,1,2.6,0.7c0.8-0.2,1.7-0.7,2.4-1.4c1.2-1.2,2-3,2.2-5.3c0.1-0.8,0.1-2,0-3.4c-0.1-1.7-0.2-2.9-0.2-3.5
							c0.1-2,0.3-3.7,0.7-5.2C415.1,241.8,416,240.1,417.1,238.9z"/>
					</g>
				</g>
				<g>
					<path fill-rule="evenodd" clip-rule="evenodd" fill="#FFAE00" d="M409.9,208.1c-13.7-14.1-13.3-36.6,0.8-50.3
						c14.1-13.7,36.6-13.3,50.3,0.8c13.7,14.1,13.3,36.6-0.8,50.3C446.1,222.6,423.5,222.2,409.9,208.1z"/>
					<path fill-rule="evenodd" clip-rule="evenodd" fill="#FFEBBF" d="M413.4,204.7c-11.8-12.2-11.5-31.6,0.7-43.4
						c12.2-11.8,31.6-11.5,43.4,0.7c11.8,12.2,11.5,31.6-0.7,43.4C444.6,217.1,425.2,216.9,413.4,204.7z"/>
					<path fill-rule="evenodd" clip-rule="evenodd" fill="#FFAE00" d="M435.6,170.1c2.3-2.3,4.7-3.4,7.3-3.3c1.6,0.1,3,0.6,4.4,1.6
						l1.9-1.8l3.4,3.5l-2,1.9c1.1,2,1.4,4.2,0.7,6.5c-0.6,2-1.7,3.9-3.3,5.7l-4.1-3.6c1.4-1.7,2.2-3.2,2.2-4.5
						c0.1-1-0.2-1.8-0.9-2.4c-0.9-0.9-2-1.1-3.4-0.9c-0.7,0.1-1.4,0.6-2.2,1.3c-1.1,1.1-1.7,2.7-1.9,4.7c0,1.6,0.1,3.9,0.1,7
						c0,2.4-0.2,4.4-0.6,5.9c-0.6,1.9-1.6,3.6-3,5c-1.4,1.4-3,2.3-4.8,2.7c-2.2,0.6-4.3,0.3-6.2-1l-1.8,1.7l-3.4-3.5l1.7-1.7
						c-0.8-1.3-1.2-2.7-1.3-4.1c0-2.4,0.8-4.6,2.6-6.6l4.5,3.2c-1,1.2-1.5,2.3-1.7,3.5c-0.1,0.8,0.2,1.5,0.9,2.2
						c0.7,0.7,1.6,1,2.6,0.7c0.8-0.2,1.7-0.7,2.4-1.4c1.2-1.2,2-3,2.2-5.3c0.1-0.8,0.1-2,0-3.4c-0.1-1.7-0.2-2.9-0.2-3.5
						c0.1-2,0.3-3.7,0.7-5.2C433.6,173,434.5,171.3,435.6,170.1z"/>
				</g>
			</g>
		</g>
	</g>
	<g>
		<path fill="#FFFFFF" d="M950.1,688.6v-40.3h-25.2v-38.4h-45.6c-0.1-25-20.4-45.2-45.4-45.2h-45.2v-30.9c0-8.9-7.3-16.2-16.2-16.2
			H598c-8.9,0-16.2,7.3-16.2,16.2v67.1V640v2.8h0.3c1.3,7.6,8,13.3,15.9,13.3h88l0,150.4c0,25,20.4,45.4,45.4,45.4H834
			c25,0,45.4-20.4,45.4-45.4v-9.1h99.8v-61.4v-47.6H950.1z"/>
		<g>
			<g>
				<path fill-rule="evenodd" clip-rule="evenodd" fill="#FFAE00" d="M598,527.7h174.6c3.4,0,6.2,2.8,6.2,6.2V640
					c0,3.4-2.8,6.2-6.2,6.2H598c-3.4,0-6.2-2.8-6.2-6.2V533.8C591.9,530.4,594.6,527.7,598,527.7z"/>
				<rect x="591.9" y="610.9" fill-rule="evenodd" clip-rule="evenodd" fill="#FFEBBF" width="186.9" height="22"/>
				<path fill-rule="evenodd" clip-rule="evenodd" fill="#FFEBBF" d="M606.9,538.6h35.7c1.9,0,3.4,1.5,3.4,3.4v23.6
					c0,1.9-1.5,3.4-3.4,3.4h-35.7c-1.9,0-3.4-1.5-3.4-3.4V542C603.5,540.1,605,538.6,606.9,538.6z"/>
			</g>
			<g>
				<path fill-rule="evenodd" clip-rule="evenodd" fill="#1B1464" d="M731.4,574.7H834c19.4,0,35.4,15.9,35.4,35.4l0,196.5
					c0,19.4-15.9,35.4-35.4,35.4H731.4C712,842,696,826,696,806.6l0-196.5C696,590.6,711.9,574.7,731.4,574.7z"/>
				<rect x="706.2" y="602.6" fill-rule="evenodd" clip-rule="evenodd" fill="#FFFDFA" width="152.9" height="202.2"/>
				<path fill-rule="evenodd" clip-rule="evenodd" fill="#0071BC" d="M757,589.5h51.3c1.4,0,2.5-1.1,2.5-2.5l0,0
					c0-1.4-1.1-2.5-2.5-2.5H757c-1.4,0-2.5,1.1-2.5,2.5l0,0C754.5,588.3,755.6,589.5,757,589.5z"/>
				<path fill-rule="evenodd" clip-rule="evenodd" fill="#29ABE2" d="M782.7,812.9c6,0,10.8,4.9,10.8,10.8c0,6-4.9,10.8-10.8,10.8
					c-6,0-10.8-4.9-10.8-10.8C771.8,817.7,776.7,812.9,782.7,812.9z"/>
			</g>
			<g>
				<rect x="773.5" y="698.6" fill-rule="evenodd" clip-rule="evenodd" fill="#009245" width="195.6" height="88.9"/>
				<rect x="778.8" y="704.7" fill-rule="evenodd" clip-rule="evenodd" fill="#39B54A" width="185" height="76.8"/>
				<path fill-rule="evenodd" clip-rule="evenodd" fill="#009245" d="M941.6,698.6h27.6v27.6C953.9,726.2,941.6,713.8,941.6,698.6z"
					/>
				<path fill-rule="evenodd" clip-rule="evenodd" fill="#009245" d="M801.1,787.5h-27.6v-27.6C788.7,759.9,801.1,772.3,801.1,787.5
					z"/>
				<path fill-rule="evenodd" clip-rule="evenodd" fill="#009245" d="M871.3,771.9c15.9,0,28.9-13,28.9-28.9
					c0-15.9-13-28.9-28.9-28.9c-15.9,0-28.9,13-28.9,28.9C842.4,759,855.4,771.9,871.3,771.9z"/>
				<g>
					<path fill="#FFFFFF" d="M790.3,727h-2.9v-11.1c-1.1,1-2.3,1.7-3.8,2.2v-2.7c0.8-0.2,1.6-0.7,2.5-1.4c0.9-0.7,1.5-1.5,1.8-2.5
						h2.4V727z"/>
					<path fill="#FFFFFF" d="M799.7,711.6c1.5,0,2.6,0.5,3.5,1.6c1,1.3,1.5,3.3,1.5,6.2c0,2.9-0.5,5-1.5,6.3c-0.8,1-2,1.6-3.5,1.6
						c-1.5,0-2.7-0.6-3.6-1.7c-0.9-1.1-1.4-3.2-1.4-6.1c0-2.9,0.5-5,1.5-6.2C797.1,712.1,798.2,711.6,799.7,711.6z M799.7,714
						c-0.4,0-0.7,0.1-1,0.3s-0.5,0.6-0.6,1.2c-0.2,0.8-0.3,2-0.3,3.8c0,1.8,0.1,3,0.3,3.7s0.4,1.1,0.7,1.3c0.3,0.2,0.6,0.3,0.9,0.3
						c0.4,0,0.7-0.1,1-0.3c0.3-0.2,0.5-0.6,0.6-1.2c0.2-0.8,0.3-2,0.3-3.8c0-1.8-0.1-3-0.3-3.7c-0.2-0.7-0.4-1.1-0.7-1.3
						S800.1,714,799.7,714z"/>
					<path fill="#FFFFFF" d="M811.6,711.6c1.5,0,2.6,0.5,3.5,1.6c1,1.3,1.5,3.3,1.5,6.2c0,2.9-0.5,5-1.5,6.3c-0.8,1-2,1.6-3.5,1.6
						c-1.5,0-2.7-0.6-3.6-1.7c-0.9-1.1-1.4-3.2-1.4-6.1c0-2.9,0.5-5,1.5-6.2C809,712.1,810.1,711.6,811.6,711.6z M811.6,714
						c-0.4,0-0.7,0.1-1,0.3s-0.5,0.6-0.7,1.2c-0.2,0.8-0.3,2-0.3,3.8c0,1.8,0.1,3,0.3,3.7c0.2,0.7,0.4,1.1,0.7,1.3
						c0.3,0.2,0.6,0.3,0.9,0.3c0.4,0,0.7-0.1,1-0.3c0.3-0.2,0.5-0.6,0.6-1.2c0.2-0.8,0.3-2,0.3-3.8c0-1.8-0.1-3-0.3-3.7
						c-0.2-0.7-0.4-1.1-0.7-1.3C812.3,714.1,812,714,811.6,714z"/>
				</g>
				<g>
					<path fill="#FFFFFF" d="M933.5,778.6h-2.9v-11.1c-1.1,1-2.3,1.7-3.8,2.2v-2.7c0.8-0.2,1.6-0.7,2.5-1.4c0.9-0.7,1.5-1.5,1.9-2.5
						h2.4V778.6z"/>
					<path fill="#FFFFFF" d="M942.8,763.2c1.5,0,2.6,0.5,3.5,1.6c1,1.3,1.5,3.3,1.5,6.2c0,2.9-0.5,5-1.5,6.3c-0.8,1-2,1.6-3.5,1.6
						c-1.5,0-2.7-0.6-3.6-1.7c-0.9-1.1-1.4-3.2-1.4-6.1c0-2.9,0.5-5,1.5-6.2C940.2,763.8,941.3,763.2,942.8,763.2z M942.8,765.7
						c-0.4,0-0.7,0.1-1,0.3c-0.3,0.2-0.5,0.6-0.6,1.2c-0.2,0.8-0.3,2-0.3,3.8c0,1.8,0.1,3,0.3,3.7c0.2,0.7,0.4,1.1,0.7,1.3
						c0.3,0.2,0.6,0.3,1,0.3c0.4,0,0.7-0.1,1-0.3c0.3-0.2,0.5-0.6,0.6-1.2c0.2-0.8,0.3-2,0.3-3.8c0-1.8-0.1-3-0.3-3.7
						c-0.2-0.7-0.4-1.1-0.7-1.3C943.5,765.8,943.2,765.7,942.8,765.7z"/>
					<path fill="#FFFFFF" d="M954.7,763.2c1.5,0,2.6,0.5,3.5,1.6c1,1.3,1.5,3.3,1.5,6.2c0,2.9-0.5,5-1.5,6.3c-0.8,1-2,1.6-3.5,1.6
						c-1.5,0-2.7-0.6-3.6-1.7c-0.9-1.1-1.4-3.2-1.4-6.1c0-2.9,0.5-5,1.5-6.2C952.1,763.8,953.2,763.2,954.7,763.2z M954.7,765.7
						c-0.4,0-0.7,0.1-1,0.3c-0.3,0.2-0.5,0.6-0.7,1.2c-0.2,0.8-0.3,2-0.3,3.8c0,1.8,0.1,3,0.3,3.7c0.2,0.7,0.4,1.1,0.7,1.3
						c0.3,0.2,0.6,0.3,0.9,0.3c0.4,0,0.7-0.1,1-0.3c0.3-0.2,0.5-0.6,0.6-1.2c0.2-0.8,0.3-2,0.3-3.8c0-1.8-0.1-3-0.3-3.7
						c-0.2-0.7-0.4-1.1-0.7-1.3S955.1,765.7,954.7,765.7z"/>
				</g>
				<path fill="#FFFFFF" d="M881.3,742.7c-1.1-1.3-2.9-2.4-5.6-3.3c-0.6-0.2-1.3-0.4-1.9-0.6v-9c0.8,0.4,1.5,0.9,1.9,1.6
					c0.4,0.6,0.7,1.3,0.8,2.1l5.8-0.8c-0.4-2.3-1.3-4.1-2.7-5.5c-1-1-2.3-1.7-3.9-2.1c-0.6-0.2-1.3-0.3-1.9-0.4v-2.3h-3.3v2.3
					c-0.5,0-1,0.1-1.5,0.2c-2,0.4-3.6,1.3-4.8,2.7c-1.6,1.7-2.4,3.8-2.4,6.3c0,2.5,0.7,4.6,2.1,6.3c1.2,1.4,2.9,2.6,5.1,3.4
					c0.5,0.2,1,0.3,1.5,0.5v9.6c-0.5-0.3-1-0.6-1.5-1c-0.3-0.3-0.5-0.5-0.8-0.9c-0.7-0.9-1.1-1.9-1.4-3.2l-6,0.6
					c0.5,3,1.5,5.3,3.2,7c1.3,1.3,3,2.2,5,2.7c0.5,0.1,1,0.2,1.5,0.3v4.2h3.3v-4.3c0.7-0.1,1.3-0.2,1.9-0.4c2.1-0.6,3.8-1.6,5-3.1
					c1.7-1.9,2.5-4.2,2.5-7C883.3,746.3,882.7,744.3,881.3,742.7z M870.5,737.7c-0.6-0.3-1.1-0.5-1.5-0.9c-0.3-0.2-0.5-0.5-0.8-0.8
					c-0.5-0.7-0.7-1.4-0.7-2.3c0-0.9,0.3-1.7,0.8-2.4c0.2-0.3,0.4-0.5,0.7-0.7c0.4-0.4,0.9-0.6,1.5-0.8V737.7z M876.6,752.6
					c-0.3,0.3-0.5,0.6-0.9,0.8c-0.6,0.4-1.2,0.7-1.9,0.8v-8.9c0.8,0.2,1.4,0.5,1.9,0.8c0.4,0.3,0.8,0.6,1,0.9
					c0.6,0.7,0.9,1.6,0.9,2.6C877.7,750.8,877.4,751.8,876.6,752.6z"/>
			</g>
			<g>
				<rect x="744.5" y="658.3" fill-rule="evenodd" clip-rule="evenodd" fill="#009245" width="195.6" height="88.9"/>
				<rect x="749.8" y="664.4" fill-rule="evenodd" clip-rule="evenodd" fill="#39B54A" width="185" height="76.8"/>
				<path fill-rule="evenodd" clip-rule="evenodd" fill="#009245" d="M912.5,658.3h27.6v27.6C924.9,685.9,912.5,673.6,912.5,658.3z"
					/>
				<path fill-rule="evenodd" clip-rule="evenodd" fill="#009245" d="M772,747.3h-27.6v-27.6C759.7,719.7,772,732,772,747.3z"/>
				<path fill-rule="evenodd" clip-rule="evenodd" fill="#009245" d="M842.3,731.7c15.9,0,28.9-13,28.9-28.9s-13-28.9-28.9-28.9
					s-28.9,13-28.9,28.9S826.4,731.7,842.3,731.7z"/>
				<g>
					<path fill="#FFFFFF" d="M761.3,686.7h-2.9v-11.1c-1.1,1-2.3,1.7-3.8,2.2v-2.7c0.8-0.3,1.6-0.7,2.5-1.4c0.9-0.7,1.5-1.5,1.8-2.5
						h2.4V686.7z"/>
					<path fill="#FFFFFF" d="M770.7,671.3c1.5,0,2.6,0.5,3.5,1.6c1,1.3,1.5,3.3,1.5,6.2c0,2.9-0.5,5-1.5,6.3c-0.8,1-2,1.6-3.5,1.6
						c-1.5,0-2.7-0.6-3.6-1.7c-0.9-1.1-1.4-3.2-1.4-6.1c0-2.9,0.5-5,1.5-6.2C768,671.8,769.2,671.3,770.7,671.3z M770.7,673.7
						c-0.4,0-0.7,0.1-1,0.3c-0.3,0.2-0.5,0.6-0.6,1.2c-0.2,0.8-0.3,2-0.3,3.8c0,1.8,0.1,3,0.3,3.7c0.2,0.7,0.4,1.1,0.7,1.3
						c0.3,0.2,0.6,0.3,0.9,0.3c0.4,0,0.7-0.1,1-0.3c0.3-0.2,0.5-0.6,0.6-1.2c0.2-0.8,0.3-2,0.3-3.8c0-1.8-0.1-3-0.3-3.7
						c-0.2-0.7-0.4-1.1-0.7-1.3C771.3,673.9,771,673.7,770.7,673.7z"/>
					<path fill="#FFFFFF" d="M782.6,671.3c1.5,0,2.6,0.5,3.5,1.6c1,1.3,1.5,3.3,1.5,6.2c0,2.9-0.5,5-1.5,6.3c-0.8,1-2,1.6-3.5,1.6
						c-1.5,0-2.7-0.6-3.6-1.7c-0.9-1.1-1.4-3.2-1.4-6.1c0-2.9,0.5-5,1.5-6.2C779.9,671.8,781.1,671.3,782.6,671.3z M782.6,673.7
						c-0.4,0-0.7,0.1-1,0.3c-0.3,0.2-0.5,0.6-0.7,1.2c-0.2,0.8-0.3,2-0.3,3.8c0,1.8,0.1,3,0.3,3.7c0.2,0.7,0.4,1.1,0.7,1.3
						c0.3,0.2,0.6,0.3,0.9,0.3c0.4,0,0.7-0.1,1-0.3c0.3-0.2,0.5-0.6,0.7-1.2c0.2-0.8,0.3-2,0.3-3.8c0-1.8-0.1-3-0.3-3.7
						s-0.4-1.1-0.7-1.3C783.3,673.9,782.9,673.7,782.6,673.7z"/>
				</g>
				<g>
					<path fill="#FFFFFF" d="M904.4,738.4h-2.9v-11.1c-1.1,1-2.3,1.7-3.8,2.2v-2.7c0.8-0.3,1.6-0.7,2.5-1.4c0.9-0.7,1.5-1.5,1.9-2.5
						h2.4V738.4z"/>
					<path fill="#FFFFFF" d="M913.8,723c1.5,0,2.6,0.5,3.5,1.6c1,1.3,1.5,3.3,1.5,6.2c0,2.9-0.5,5-1.5,6.3c-0.8,1-2,1.6-3.5,1.6
						c-1.5,0-2.7-0.6-3.6-1.7c-0.9-1.1-1.4-3.2-1.4-6.1c0-2.9,0.5-5,1.5-6.2C911.1,723.5,912.3,723,913.8,723z M913.8,725.4
						c-0.4,0-0.7,0.1-1,0.3c-0.3,0.2-0.5,0.6-0.7,1.2c-0.2,0.8-0.3,2-0.3,3.8c0,1.8,0.1,3,0.3,3.7c0.2,0.7,0.4,1.1,0.7,1.3
						c0.3,0.2,0.6,0.3,1,0.3c0.4,0,0.7-0.1,1-0.3c0.3-0.2,0.5-0.6,0.6-1.2c0.2-0.8,0.3-2,0.3-3.8c0-1.8-0.1-3-0.3-3.7
						c-0.2-0.7-0.4-1.1-0.7-1.3C914.5,725.5,914.1,725.4,913.8,725.4z"/>
					<path fill="#FFFFFF" d="M925.7,723c1.5,0,2.6,0.5,3.5,1.6c1,1.3,1.5,3.3,1.5,6.2c0,2.9-0.5,5-1.5,6.3c-0.8,1-2,1.6-3.5,1.6
						c-1.5,0-2.7-0.6-3.6-1.7c-0.9-1.1-1.4-3.2-1.4-6.1c0-2.9,0.5-5,1.5-6.2C923,723.5,924.2,723,925.7,723z M925.7,725.4
						c-0.4,0-0.7,0.1-1,0.3c-0.3,0.2-0.5,0.6-0.6,1.2c-0.2,0.8-0.3,2-0.3,3.8c0,1.8,0.1,3,0.3,3.7c0.2,0.7,0.4,1.1,0.7,1.3
						c0.3,0.2,0.6,0.3,0.9,0.3c0.4,0,0.7-0.1,1-0.3c0.3-0.2,0.5-0.6,0.7-1.2c0.2-0.8,0.3-2,0.3-3.8c0-1.8-0.1-3-0.3-3.7
						c-0.2-0.7-0.4-1.1-0.7-1.3C926.4,725.5,926,725.4,925.7,725.4z"/>
				</g>
				<path fill="#FFFFFF" d="M852.3,702.4c-1.1-1.3-2.9-2.4-5.6-3.3c-0.6-0.2-1.3-0.4-1.9-0.6v-9c0.8,0.4,1.5,0.9,1.9,1.6
					c0.4,0.6,0.7,1.3,0.8,2.1l5.8-0.8c-0.4-2.3-1.3-4.1-2.7-5.5c-1-1-2.3-1.7-3.9-2.1c-0.6-0.2-1.3-0.3-1.9-0.4v-2.3h-3.3v2.3
					c-0.5,0.1-1,0.1-1.5,0.2c-2,0.4-3.6,1.3-4.8,2.7c-1.6,1.7-2.4,3.8-2.4,6.3c0,2.5,0.7,4.6,2.1,6.3c1.2,1.4,2.9,2.6,5.1,3.4
					c0.5,0.2,1,0.3,1.5,0.5v9.6c-0.5-0.3-1-0.6-1.5-1c-0.3-0.3-0.5-0.6-0.8-0.9c-0.7-0.9-1.1-1.9-1.4-3.2l-6,0.6
					c0.5,3,1.5,5.3,3.2,7c1.3,1.3,3,2.2,5,2.7c0.5,0.1,1,0.2,1.5,0.3v4.2h3.3V719c0.7-0.1,1.3-0.2,1.9-0.4c2.1-0.6,3.8-1.6,5-3.1
					c1.7-1.9,2.5-4.2,2.5-7C854.3,706.1,853.6,704,852.3,702.4z M841.5,697.5c-0.6-0.3-1.1-0.5-1.5-0.9c-0.3-0.2-0.5-0.5-0.8-0.8
					c-0.5-0.7-0.7-1.4-0.7-2.3c0-0.9,0.3-1.7,0.8-2.4c0.2-0.3,0.4-0.5,0.7-0.7c0.4-0.4,0.9-0.6,1.5-0.8V697.5z M847.6,712.4
					c-0.3,0.3-0.5,0.6-0.9,0.8c-0.6,0.4-1.2,0.7-1.9,0.8V705c0.8,0.2,1.4,0.5,1.9,0.8c0.4,0.3,0.8,0.6,1,0.9
					c0.6,0.7,0.9,1.6,0.9,2.6C848.7,710.5,848.3,711.5,847.6,712.4z"/>
			</g>
			<g>
				<rect x="719.3" y="619.9" fill-rule="evenodd" clip-rule="evenodd" fill="#009245" width="195.6" height="88.9"/>
				<rect x="724.6" y="626" fill-rule="evenodd" clip-rule="evenodd" fill="#39B54A" width="185" height="76.8"/>
				<path fill-rule="evenodd" clip-rule="evenodd" fill="#009245" d="M887.4,619.9h27.6v27.6C899.7,647.5,887.4,635.2,887.4,619.9z"
					/>
				<path fill-rule="evenodd" clip-rule="evenodd" fill="#009245" d="M746.9,708.9h-27.6v-27.6C734.5,681.3,746.9,693.6,746.9,708.9
					z"/>
				<path fill-rule="evenodd" clip-rule="evenodd" fill="#009245" d="M817.1,693.3c15.9,0,28.9-13,28.9-28.9
					c0-15.9-13-28.9-28.9-28.9c-15.9,0-28.9,13-28.9,28.9C788.2,680.3,801.2,693.3,817.1,693.3z"/>
				<g>
					<path fill="#FFFFFF" d="M736.1,648.3h-2.9v-11.1c-1.1,1-2.3,1.7-3.8,2.2v-2.7c0.8-0.3,1.6-0.7,2.5-1.4c0.9-0.7,1.5-1.5,1.8-2.5
						h2.4V648.3z"/>
					<path fill="#FFFFFF" d="M745.5,632.9c1.5,0,2.6,0.5,3.5,1.6c1,1.3,1.5,3.3,1.5,6.2c0,2.9-0.5,5-1.5,6.3c-0.8,1-2,1.6-3.5,1.6
						c-1.5,0-2.7-0.6-3.6-1.7c-0.9-1.1-1.4-3.2-1.4-6.1c0-2.9,0.5-5,1.5-6.2C742.9,633.4,744,632.9,745.5,632.9z M745.5,635.4
						c-0.4,0-0.7,0.1-1,0.3c-0.3,0.2-0.5,0.6-0.7,1.2c-0.2,0.8-0.3,2-0.3,3.8c0,1.8,0.1,3,0.3,3.7c0.2,0.7,0.4,1.1,0.7,1.3
						c0.3,0.2,0.6,0.3,0.9,0.3s0.7-0.1,1-0.3c0.3-0.2,0.5-0.6,0.6-1.2c0.2-0.8,0.3-2,0.3-3.8c0-1.8-0.1-3-0.3-3.7
						c-0.2-0.7-0.4-1.1-0.7-1.3C746.2,635.5,745.9,635.4,745.5,635.4z"/>
					<path fill="#FFFFFF" d="M757.4,632.9c1.5,0,2.6,0.5,3.5,1.6c1,1.3,1.5,3.3,1.5,6.2c0,2.9-0.5,5-1.5,6.3c-0.8,1-2,1.6-3.5,1.6
						c-1.5,0-2.7-0.6-3.6-1.7c-0.9-1.1-1.4-3.2-1.4-6.1c0-2.9,0.5-5,1.5-6.2C754.8,633.4,755.9,632.9,757.4,632.9z M757.4,635.4
						c-0.4,0-0.7,0.1-1,0.3c-0.3,0.2-0.5,0.6-0.7,1.2c-0.2,0.8-0.3,2-0.3,3.8c0,1.8,0.1,3,0.3,3.7c0.2,0.7,0.4,1.1,0.7,1.3
						c0.3,0.2,0.6,0.3,0.9,0.3c0.4,0,0.7-0.1,1-0.3s0.5-0.6,0.6-1.2c0.2-0.8,0.3-2,0.3-3.8c0-1.8-0.1-3-0.3-3.7
						c-0.2-0.7-0.4-1.1-0.7-1.3C758.1,635.5,757.8,635.4,757.4,635.4z"/>
				</g>
				<g>
					<path fill="#FFFFFF" d="M879.3,700h-2.9v-11.1c-1.1,1-2.3,1.7-3.8,2.2v-2.7c0.8-0.3,1.6-0.7,2.5-1.4c0.9-0.7,1.5-1.5,1.9-2.5
						h2.4V700z"/>
					<path fill="#FFFFFF" d="M888.6,684.6c1.5,0,2.6,0.5,3.5,1.6c1,1.3,1.5,3.3,1.5,6.2c0,2.9-0.5,5-1.5,6.3c-0.8,1-2,1.6-3.5,1.6
						c-1.5,0-2.7-0.6-3.6-1.7s-1.4-3.2-1.4-6.1c0-2.9,0.5-5,1.5-6.2C886,685.1,887.1,684.6,888.6,684.6z M888.6,687
						c-0.4,0-0.7,0.1-1,0.3c-0.3,0.2-0.5,0.6-0.6,1.2c-0.2,0.8-0.3,2-0.3,3.8c0,1.8,0.1,3,0.3,3.7c0.2,0.7,0.4,1.1,0.7,1.3
						c0.3,0.2,0.6,0.3,1,0.3c0.4,0,0.7-0.1,1-0.3c0.3-0.2,0.5-0.6,0.6-1.2c0.2-0.8,0.3-2,0.3-3.8c0-1.8-0.1-3-0.3-3.7
						c-0.2-0.7-0.4-1.1-0.7-1.3C889.3,687.1,889,687,888.6,687z"/>
					<path fill="#FFFFFF" d="M900.5,684.6c1.5,0,2.6,0.5,3.5,1.6c1,1.3,1.5,3.3,1.5,6.2c0,2.9-0.5,5-1.5,6.3c-0.8,1-2,1.6-3.5,1.6
						c-1.5,0-2.7-0.6-3.6-1.7s-1.4-3.2-1.4-6.1c0-2.9,0.5-5,1.5-6.2C897.9,685.1,899,684.6,900.5,684.6z M900.5,687
						c-0.4,0-0.7,0.1-1,0.3c-0.3,0.2-0.5,0.6-0.6,1.2c-0.2,0.8-0.3,2-0.3,3.8c0,1.8,0.1,3,0.3,3.7c0.2,0.7,0.4,1.1,0.7,1.3
						c0.3,0.2,0.6,0.3,0.9,0.3c0.4,0,0.7-0.1,1-0.3c0.3-0.2,0.5-0.6,0.7-1.2c0.2-0.8,0.3-2,0.3-3.8c0-1.8-0.1-3-0.3-3.7
						c-0.2-0.7-0.4-1.1-0.7-1.3C901.2,687.1,900.9,687,900.5,687z"/>
				</g>
				<path fill="#FFFFFF" d="M827.1,664.1c-1.1-1.3-2.9-2.4-5.6-3.3c-0.6-0.2-1.3-0.4-1.9-0.6v-9c0.8,0.3,1.5,0.9,1.9,1.6
					c0.4,0.6,0.7,1.3,0.8,2.1l5.8-0.8c-0.4-2.3-1.3-4.1-2.7-5.5c-1-1-2.3-1.7-3.9-2.1c-0.6-0.2-1.3-0.3-1.9-0.4v-2.3h-3.3v2.3
					c-0.5,0.1-1,0.1-1.5,0.2c-2,0.4-3.6,1.3-4.8,2.7c-1.6,1.7-2.4,3.8-2.4,6.3c0,2.5,0.7,4.6,2.1,6.3c1.2,1.4,2.9,2.6,5.1,3.4
					c0.5,0.2,1,0.3,1.5,0.5v9.6c-0.5-0.3-1-0.6-1.5-1c-0.3-0.3-0.5-0.5-0.8-0.9c-0.7-0.9-1.1-1.9-1.4-3.2l-6,0.6
					c0.5,3,1.5,5.3,3.2,7c1.3,1.3,3,2.2,5,2.7c0.5,0.1,1,0.2,1.5,0.3v4.2h3.3v-4.3c0.7-0.1,1.3-0.2,1.9-0.4c2.1-0.6,3.8-1.6,5-3.1
					c1.7-1.9,2.5-4.2,2.5-7C829.1,667.7,828.5,665.6,827.1,664.1z M816.3,659.1c-0.6-0.3-1.1-0.5-1.5-0.9c-0.3-0.2-0.5-0.5-0.8-0.8
					c-0.5-0.7-0.7-1.4-0.7-2.3c0-0.9,0.3-1.7,0.8-2.4c0.2-0.3,0.4-0.5,0.7-0.7c0.4-0.4,0.9-0.6,1.5-0.8V659.1z M822.4,674
					c-0.3,0.3-0.5,0.6-0.9,0.8c-0.6,0.4-1.2,0.7-1.9,0.8v-8.9c0.8,0.2,1.4,0.5,1.9,0.8c0.4,0.3,0.8,0.6,1,0.9
					c0.6,0.7,0.9,1.6,0.9,2.6C823.5,672.1,823.2,673.1,822.4,674z"/>
			</g>
		</g>
	</g>
</g>
</svg>
